# xmcd
#
# Track frame offsets:
#	150
#	17895
#	34662
#	51417
#	66725
#	84115
#	105097
#	121490
#	141652
#	160320
#	180415
#	200532
#	218347
#	234375
#	252447
#	269610
#	290732
#	308450
#
# Disc length: 4372 seconds
#
# Revision: 0
# Processed by: cddbd v1.5.2PL0 Copyright (c) Steve Scherf et al.
# Submitted via: EasyCDDAExtractor 2010.6.0.0
#
DISCID=05111212
DTITLE=Level 42 - Level Best
DYEAR=1989
DGENRE=Pop
TTITLE0=Running In The Family
TTITLE1=The Sun Goes Down
TTITLE2=Something About You
TTITLE3=Tracie
TTITLE4=Starchild
TTITLE5=It's Over
TTITLE6=Hot Water
TTITLE7=Take Care Of Yourself
TTITLE8=Heaven In My Hands
TTITLE9=Children Say
TTITLE10=Love Games
TTITLE11=The Chinese Way
TTITLE12=Leaving Me Now
TTITLE13=Lessons In Love
TTITLE14=Micro-Kid
TTITLE15=Take A Look
TTITLE16=To Be With You Again
TTITLE17=The Chant Has Begun
EXTD=
EXTT0=
EXTT1=
EXTT2=
EXTT3=
EXTT4=
EXTT5=
EXTT6=
EXTT7=
EXTT8=
EXTT9=
EXTT10=
EXTT11=
EXTT12=
EXTT13=
EXTT14=
EXTT15=
EXTT16=
EXTT17=
PLAYORDER=
